<svg width="100" height="100" viewBox="0 0 280 280" xmlns="http://www.w3.org/2000/svg">
<defs>
  <filter id="ngFav" x="-150%" y="-150%" width="400%" height="400%">
    <feGaussianBlur stdDeviation="2.5" result="b"/>
    <feMerge><feMergeNode in="b"/><feMergeNode in="SourceGraphic"/></feMerge>
  </filter>
</defs>
<polyline points="34,74 34,34 74,34" fill="none" stroke="#2563eb" stroke-width="9" stroke-linecap="round" stroke-linejoin="round" opacity="0.9"/>
<polyline points="206,34 246,34 246,74" fill="none" stroke="#2563eb" stroke-width="9" stroke-linecap="round" stroke-linejoin="round" opacity="0.9"/>
<polyline points="34,206 34,246 74,246" fill="none" stroke="#2563eb" stroke-width="9" stroke-linecap="round" stroke-linejoin="round" opacity="0.9"/>
<polyline points="246,206 246,246 206,246" fill="none" stroke="#2563eb" stroke-width="9" stroke-linecap="round" stroke-linejoin="round" opacity="0.9"/>
<polygon points="140,52 168,58 190,78 200,108 196,138 186,166 170,188 140,200 110,188 94,166 84,138 80,108 90,78 112,58" fill="none" stroke="#0ea5e9" stroke-width="2.5" opacity="0.55"/>
<line x1="140" y1="52" x2="140" y2="130" stroke="#0ea5e9" stroke-width="2" opacity="0.5"/>
<line x1="90" y1="78" x2="196" y2="138" stroke="#2563eb" stroke-width="1.6" opacity="0.4"/>
<line x1="190" y1="78" x2="84" y2="138" stroke="#2563eb" stroke-width="1.6" opacity="0.4"/>
<line x1="84" y1="138" x2="140" y2="200" stroke="#2563eb" stroke-width="1.6" opacity="0.42"/>
<line x1="196" y1="138" x2="140" y2="200" stroke="#2563eb" stroke-width="1.6" opacity="0.42"/>
<circle cx="140" cy="52" r="4" fill="#0ea5e9" opacity="0.9"/>
<circle cx="140" cy="200" r="4" fill="#0ea5e9" opacity="0.9"/>
<circle cx="116" cy="113" r="7" fill="#0ea5e9" opacity="0.5" filter="url(#ngFav)"/>
<circle cx="116" cy="113" r="4" fill="#7dd3fc" opacity="0.95"/>
<circle cx="116" cy="113" r="2" fill="#fff"/>
<circle cx="164" cy="113" r="7" fill="#0ea5e9" opacity="0.5" filter="url(#ngFav)"/>
<circle cx="164" cy="113" r="4" fill="#7dd3fc" opacity="0.95"/>
<circle cx="164" cy="113" r="2" fill="#fff"/>
<circle cx="222" cy="52" r="26" fill="#059669"/>
<polyline points="210,52 219,62 235,40" fill="none" stroke="#fff" stroke-width="5" stroke-linecap="round" stroke-linejoin="round"/>
</svg>