<svg xmlns="http://www.w3.org/2000/svg" viewBox="0 0 220 220"><title>Attendance System</title><circle cx="110" cy="110" r="105" fill="none" stroke="#111" stroke-width="1" opacity=".12"/><circle cx="110" cy="110" r="96" fill="none" stroke="#111" stroke-width="5.5"/><line x1="110" y1="5" x2="110" y2="24" stroke="#111" stroke-width="4.5" stroke-linecap="round"/><line x1="215" y1="110" x2="196" y2="110" stroke="#111" stroke-width="4.5" stroke-linecap="round"/><line x1="110" y1="215" x2="110" y2="196" stroke="#111" stroke-width="4.5" stroke-linecap="round"/><line x1="5" y1="110" x2="24" y2="110" stroke="#111" stroke-width="4.5" stroke-linecap="round"/><line x1="176.4" y1="33.6" x2="169.4" y2="43.5" stroke="#111" stroke-width="2" stroke-linecap="round" opacity=".45"/><line x1="186.4" y1="176.4" x2="176.5" y2="169.4" stroke="#111" stroke-width="2" stroke-linecap="round" opacity=".45"/><line x1="43.6" y1="186.4" x2="50.6" y2="176.5" stroke="#111" stroke-width="2" stroke-linecap="round" opacity=".45"/><line x1="33.6" y1="43.6" x2="43.5" y2="50.6" stroke="#111" stroke-width="2" stroke-linecap="round" opacity=".45"/><circle cx="110" cy="110" r="80" fill="none" stroke="#111" stroke-width=".8" opacity=".1"/><circle cx="110" cy="110" r="68" fill="#111"/><circle cx="110" cy="86" r="21" fill="#fff"/><rect x="103" y="104" width="14" height="10" fill="#fff"/><path d="M55 152 Q62 116 110 114 Q158 116 165 152Z" fill="#fff"/><circle cx="173" cy="173" r="29" fill="#fff"/><circle cx="173" cy="173" r="23" fill="#111"/><polyline points="163,173 170,181 184,162" fill="none" stroke="#fff" stroke-width="3.8" stroke-linecap="round" stroke-linejoin="round"/><circle cx="110" cy="47" r="3.5" fill="#111"/></svg>
